<svg width="28" height="28" viewBox="0 0 28 28" fill="none" xmlns="http://www.w3.org/2000/svg">
<path d="M14 28C21.732 28 28 21.732 28 14C28 6.26801 21.732 0 14 0C6.26801 0 0 6.26801 0 14C0 21.732 6.26801 28 14 28Z" fill="#202326"/>
<path d="M8.13075 11.3921H10.8409V20.1057H8.13075V11.3921ZM9.48584 7.05899C10.3525 7.05899 11.0537 7.76017 11.0537 8.6268C11.0537 9.49343 10.3525 10.1946 9.48584 10.1946C8.61922 10.1946 7.91016 9.49343 7.91016 8.6268C7.91016 7.76805 8.61134 7.05899 9.48584 7.05899Z" fill="white"/>
<path d="M12.5427 11.3923H15.1426V12.582H15.182C15.5444 11.8965 16.4268 11.1717 17.7425 11.1717C20.4842 11.1717 20.9884 12.9759 20.9884 15.3237V20.098H18.2861V15.8594C18.2861 14.851 18.2625 13.551 16.8759 13.551C15.4656 13.551 15.2529 14.654 15.2529 15.7885V20.098H12.5427V11.3923Z" fill="white"/>
</svg>
