<svg width="104" height="60" viewBox="0 0 104 60" fill="none" xmlns="http://www.w3.org/2000/svg">
<path d="M50.0185 52.7909V53.1425C50.0185 53.2092 49.9651 53.2626 49.8984 53.2626H47.4954V59.8754C47.4954 59.9421 47.442 59.9956 47.3752 59.9956H46.4051C46.3384 59.9956 46.285 59.9421 46.285 59.8754V53.2626H43.8908C43.8241 53.2626 43.7707 53.2092 43.7707 53.1425V52.7909H50.0185Z" fill="white"/>
<path d="M55.55 52.7909H56.3376C56.44 52.7909 56.5201 52.871 56.5201 52.9734V59.8131C56.5201 59.9155 56.44 59.9956 56.3376 59.9956H55.55C55.4476 59.9956 55.3675 59.9155 55.3675 59.8131V56.6224H51.8742V59.8131C51.8742 59.9155 51.7941 59.9956 51.6918 59.9956H50.9041C50.8018 59.9956 50.7217 59.9155 50.7217 59.8131V52.9734C50.7217 52.871 50.8018 52.7909 50.9041 52.7909H51.6918C51.7941 52.7909 51.8742 52.871 51.8742 52.9734V56.1641H55.3675V52.9734C55.3675 52.871 55.4476 52.7909 55.55 52.7909Z" fill="white"/>
<path d="M43.3079 52.7909H43.8864L41.2697 59.9065C41.2519 59.9555 41.203 59.9911 41.1496 59.9911H40.8114C40.758 59.9911 40.7135 59.9599 40.6912 59.911L39.196 56.1329C39.1604 56.0439 39.0358 56.0439 39.0002 56.1329L37.3849 59.9154C37.3671 59.9644 37.3181 59.9911 37.2692 59.9911H36.9443C36.8909 59.9911 36.8419 59.9555 36.8242 59.9065L34.252 52.7909H35.2978C35.4046 52.7909 35.5025 52.8577 35.5381 52.96L37.2781 57.8417C37.3048 57.9129 37.4071 57.9174 37.4338 57.8417L39.2316 53.5474H39.4719L41.0873 57.9975C41.114 58.0731 41.2208 58.0731 41.2475 57.9975L43.0631 52.9556C43.0987 52.8532 43.1966 52.7865 43.3034 52.7865L43.3079 52.7909Z" fill="white"/>
<path d="M33.0639 58.9809C32.3563 59.6529 31.4485 59.9911 30.3449 59.9911C29.2413 59.9911 28.3335 59.6529 27.6215 58.9809C26.9094 58.309 26.5534 57.4457 26.5534 56.391C26.5534 55.3363 26.9094 54.473 27.6215 53.8011C28.3335 53.1291 29.2413 52.7909 30.3449 52.7909C31.4485 52.7909 32.3519 53.1291 33.0639 53.8011C33.7714 54.473 34.1274 55.3363 34.1274 56.391C34.1274 57.4457 33.7714 58.309 33.0639 58.9809ZM28.5515 58.6828C28.9921 59.2524 29.5928 59.5372 30.3493 59.5372C31.1058 59.5372 31.7021 59.2524 32.1471 58.6828C32.5877 58.1132 32.8102 57.3478 32.8102 56.391C32.8102 55.4342 32.5877 54.6644 32.1471 54.0948C31.7066 53.5252 31.1058 53.2404 30.3493 53.2404C29.5928 53.2404 28.9965 53.5252 28.5515 54.0948C28.111 54.6644 27.8885 55.4298 27.8885 56.391C27.8885 57.3522 28.111 58.1176 28.5515 58.6828Z" fill="white"/>
<path d="M26.5534 59.9911H25.3831L23.2204 57.241C23.0869 56.9606 22.8599 56.8227 22.5395 56.8227H21.8052V59.9911H20.6972V52.7909H23.1981C23.9057 52.7909 24.4575 52.9734 24.8491 53.3427C25.2407 53.7121 25.4365 54.1971 25.4365 54.8068C25.4365 55.2785 25.2985 55.6835 25.0226 56.0172C24.7467 56.3554 24.3596 56.5868 23.8612 56.7114C23.9591 56.7515 24.0481 56.8138 24.1282 56.9028L26.5579 59.9866L26.5534 59.9911ZM21.8008 56.3554H22.8643C23.345 56.3554 23.7099 56.2175 23.9546 55.946C24.1994 55.6746 24.324 55.2918 24.324 54.8068C24.324 54.3217 24.2038 53.9479 23.968 53.672C23.7321 53.3961 23.385 53.2582 22.9311 53.2582H21.8008V56.3554Z" fill="white"/>
<path d="M9.12705 57.9619C9.13595 58.0553 9.10925 58.1488 9.0514 58.22C8.18364 59.2924 6.80412 59.9866 5.24661 59.9866C2.62108 59.9866 0.493955 58.0108 0.493955 55.5722C0.493955 53.1336 2.62108 51.1578 5.24661 51.1578C6.81747 51.1578 8.21034 51.8653 9.0781 52.96C9.14485 53.0446 9.176 53.1514 9.17155 53.2582C9.1493 53.6097 9.0158 54.295 8.22814 53.5029C7.34703 52.4483 7.31143 51.7407 5.27331 51.6562C3.23519 51.5716 2.23392 54.0325 2.34073 55.5722C2.44753 57.1075 3.20848 59.3458 5.25106 59.3458C7.29363 59.3458 8.05014 57.7394 8.16139 57.4768C8.26819 57.2143 8.63754 57.0852 8.87785 57.2365C9.04695 57.3433 9.10925 57.7394 9.12705 57.9574V57.9619Z" fill="white"/>
<path d="M17.4086 58.349V55.8793L16.2872 56.0261C16.1003 56.0528 15.9312 55.906 15.9312 55.7146C15.9312 55.541 16.0736 55.3986 16.2471 55.3986H18.5478C18.708 55.3986 18.8415 55.5277 18.8415 55.6923V58.7362C18.8415 59.0521 18.5879 59.239 18.352 59.4482C17.9203 59.8353 16.4963 60.0489 15.0812 59.9688C12.4601 59.8175 10.3286 57.993 10.3286 55.5544C10.3286 53.1158 12.4557 51.14 15.0812 51.14C16.6521 51.14 18.0494 51.8475 18.9127 52.9422C18.9795 53.0268 19.0106 53.1291 19.0017 53.2359C18.9839 53.5875 18.8504 54.2772 18.0583 53.4851C17.1772 52.4305 17.1416 51.7229 15.1035 51.6384C13.0653 51.5538 12.0641 54.0147 12.1709 55.5544C12.2777 57.0897 13.0386 59.328 15.0812 59.328H16.8256C17.1371 59.328 17.3863 59.0788 17.3952 58.7718L17.4041 58.349H17.4086Z" fill="white"/>
<path d="M99.8502 59.5372H103.014V59.9911H98.6665C98.573 59.9911 98.4974 59.9154 98.4974 59.822V53.1603C98.4974 53.0668 98.573 52.9912 98.6665 52.9912H99.5164C99.6099 52.9912 99.6855 53.0668 99.6855 53.1603V59.3681C99.6855 59.4615 99.7612 59.5372 99.8546 59.5372H99.8502Z" fill="white"/>
<path d="M91.5731 53.1603V53.2804C91.5731 53.3739 91.4974 53.4495 91.404 53.4495H89.2858C89.1923 53.4495 89.1167 53.5252 89.1167 53.6186V59.8264C89.1167 59.9199 89.041 59.9956 88.9476 59.9956H88.1065C88.0131 59.9956 87.9374 59.9199 87.9374 59.8264V53.6186C87.9374 53.5252 87.8617 53.4495 87.7683 53.4495H85.6634C85.57 53.4495 85.4943 53.3739 85.4943 53.2804V53.1603C85.4943 53.0668 85.57 52.9912 85.6634 52.9912H91.3951C91.4885 52.9912 91.5642 53.0668 91.5642 53.1603H91.5731Z" fill="white"/>
<path d="M83.3672 52.9912H84.2172C84.3106 52.9912 84.3863 53.0668 84.3863 53.1603V59.822C84.3863 59.9154 84.3106 59.9911 84.2172 59.9911H83.3672C83.2738 59.9911 83.1981 59.9154 83.1981 59.822V53.1603C83.1981 53.0668 83.2738 52.9912 83.3672 52.9912Z" fill="white"/>
<path d="M79.9407 52.9912C80.6705 52.9912 81.2445 53.1692 81.6584 53.5296C82.0722 53.8901 82.2769 54.384 82.2769 55.0115C82.2769 55.639 82.0722 56.1329 81.6584 56.4934C81.2445 56.8538 80.6749 57.0318 79.9407 57.0318H78.668C78.6012 57.0318 78.5478 57.0852 78.5478 57.152V59.8798C78.5478 59.9466 78.4944 60 78.4277 60H77.6177C77.551 60 77.4976 59.9466 77.4976 59.8798V53.1158C77.4976 53.049 77.551 52.9956 77.6177 52.9956H79.9362L79.9407 52.9912ZM79.687 56.6224C80.1765 56.6224 80.5503 56.4845 80.8084 56.2086C81.0665 55.9327 81.1956 55.5321 81.1956 55.007C81.1956 54.4819 81.0665 54.0814 80.8084 53.8055C80.5503 53.5296 80.1765 53.3917 79.687 53.3917H78.668C78.6012 53.3917 78.5478 53.4451 78.5478 53.5118V56.5067C78.5478 56.5735 78.6012 56.6269 78.668 56.6269H79.687V56.6224Z" fill="white"/>
<path d="M69.5365 58.0286C69.5454 58.1176 69.5187 58.2111 69.4608 58.2778C68.593 59.3191 67.2135 59.9911 65.656 59.9911C63.0305 59.9911 60.9034 58.0776 60.9034 55.7146C60.9034 53.3516 63.0305 51.4381 65.656 51.4381C67.2269 51.4381 68.6197 52.1234 69.4875 53.1825C69.5543 53.2626 69.5854 53.3694 69.581 53.4718C69.5587 53.81 69.4252 54.473 68.6376 53.7076C67.7564 52.6886 67.7208 52.1279 65.6827 52.1768C63.6223 52.2213 62.6433 54.2238 62.7501 55.7146C62.8569 57.2009 63.6179 59.3681 65.6605 59.3681C67.703 59.3681 68.4595 57.8106 68.5708 57.5569C68.6776 57.3033 69.047 57.1787 69.2873 57.3255C69.4564 57.4323 69.5187 57.8106 69.5365 58.0242V58.0286Z" fill="white"/>
<path d="M76.7188 59.6529L73.813 53.0624C73.7952 53.0179 73.7506 52.9912 73.7017 52.9912H73.2033C73.1588 52.9912 73.1143 53.0179 73.092 53.0624L69.9058 59.8175C69.8702 59.8976 69.9281 59.9911 70.0171 59.9911H70.5333C70.5822 59.9911 70.6223 59.9644 70.6445 59.9199L71.6413 57.7928C71.6591 57.7483 71.7036 57.7216 71.7526 57.7216H74.5072C74.5561 57.7216 74.5962 57.7483 74.6184 57.7928L75.5974 59.9154C75.6152 59.9599 75.6597 59.9866 75.7087 59.9866H76.5052C76.6788 59.9866 76.7945 59.8086 76.7233 59.6529H76.7188ZM74.1868 57.1164H72.1887C72.0997 57.1164 72.0418 57.0274 72.0774 56.9473L73.0831 54.9091C73.1009 54.8646 73.1454 54.8379 73.1944 54.8379H73.2789C73.3279 54.8379 73.3724 54.8691 73.3902 54.9136L74.298 56.9517C74.3292 57.0318 74.2713 57.1208 74.1868 57.1208V57.1164Z" fill="white"/>
<path d="M97.7854 59.6529L94.8795 53.0624C94.8617 53.0179 94.8172 52.9912 94.7682 52.9912H94.2698C94.2253 52.9912 94.1808 53.0179 94.1586 53.0624L90.9723 59.8175C90.9367 59.8976 90.9946 59.9911 91.0836 59.9911H91.5998C91.6487 59.9911 91.6888 59.9644 91.711 59.9199L92.7079 57.7928C92.7257 57.7483 92.7702 57.7216 92.8191 57.7216H95.5737C95.6226 57.7216 95.6627 57.7483 95.6849 57.7928L96.664 59.9154C96.6818 59.9599 96.7263 59.9866 96.7752 59.9866H97.5718C97.7453 59.9866 97.861 59.8086 97.7898 59.6529H97.7854ZM95.2533 57.1164H93.2552C93.1662 57.1164 93.1084 57.0274 93.144 56.9473L94.1497 54.9091C94.1675 54.8646 94.212 54.8379 94.2609 54.8379H94.3455C94.3944 54.8379 94.4389 54.8691 94.4567 54.9136L95.3645 56.9517C95.3957 57.0318 95.3378 57.1208 95.2533 57.1208V57.1164Z" fill="white"/>
<path d="M65.7094 18.0672C65.26 16.9057 64.6726 15.7176 63.9605 14.6807C60.939 10.2974 55.946 7.68078 50.6059 7.68078C41.688 7.68078 34.43 14.8854 34.43 23.741C34.43 32.5966 41.6836 39.8012 50.6059 39.8012C59.5283 39.8012 66.7819 32.5966 66.7819 23.741V20.8084H50.3968V26.678H60.5296C59.2479 30.8744 55.283 33.9361 50.6104 33.9361C44.8965 33.9361 40.2507 29.3659 40.2507 23.7455C40.2507 18.125 44.8965 13.5548 50.6104 13.5548C54.0503 13.5548 57.2588 15.2281 59.1901 18.036L65.7139 18.0672H65.7094Z" fill="white"/>
<path d="M23.5719 13.1677C27.1586 13.1677 30.3449 14.7653 32.3563 17.2306C33.055 15.2726 34.0651 13.4569 35.32 11.846C32.2807 9.0336 28.1377 7.29808 23.5719 7.29808C14.2669 7.29808 6.70177 14.5027 6.70177 23.3583C6.70177 32.2139 14.2713 39.4185 23.5719 39.4185C27.9641 39.4185 31.9691 37.8121 34.9729 35.1865C33.767 33.54 32.8102 31.6932 32.1694 29.7085C30.1535 32.0492 27.0474 33.5534 23.5719 33.5534C17.5065 33.5534 12.5669 28.9832 12.5669 23.3628C12.5669 17.7423 17.502 13.1721 23.5719 13.1721V13.1677ZM76.7722 7.29808C72.4601 7.29808 68.5219 8.8467 65.5359 11.3921C66.8086 12.9274 67.8454 14.6674 68.5975 16.5453C70.6134 14.4716 73.5326 13.1632 76.7722 13.1632C82.8377 13.1632 87.7772 17.7334 87.7772 23.3539C87.7772 28.9743 82.8421 33.5445 76.7722 33.5445C73.6439 33.5445 70.8181 32.3251 68.8155 30.3805C68.1213 32.2895 67.129 34.0518 65.9052 35.6226C68.8423 37.9856 72.6381 39.4141 76.7722 39.4141C86.0773 39.4141 93.6424 32.2094 93.6424 23.3539C93.6424 14.4983 86.0728 7.29363 76.7722 7.29363V7.29808Z" fill="white"/>
<path d="M78.6724 46.7211H23.3583C10.4799 46.7211 0 36.2412 0 23.3628C0 10.4843 10.4799 0 23.3583 0H78.668C91.5508 0 102.026 10.4799 102.026 23.3583C102.026 36.2367 91.5464 46.7166 78.668 46.7166L78.6724 46.7211ZM23.3583 2.54988C11.8861 2.54988 2.54988 11.8861 2.54988 23.3583C2.54988 34.8305 11.8861 44.1667 23.3583 44.1667H78.668C90.1402 44.1667 99.4764 34.8305 99.4764 23.3583C99.4764 11.8861 90.1446 2.54988 78.6724 2.54988H23.3583Z" fill="white"/>
</svg>
