<svg width="28" height="28" viewBox="0 0 28 28" fill="none" xmlns="http://www.w3.org/2000/svg">
<path d="M14 28C21.732 28 28 21.732 28 14C28 6.26801 21.732 0 14 0C6.26801 0 0 6.26801 0 14C0 21.732 6.26801 28 14 28Z" fill="#202326"/>
<path d="M21.7363 9.20204C21.2478 9.42263 20.7121 9.55657 20.1921 9.64323C20.4442 9.60384 20.8066 9.15477 20.9485 8.97356C21.1691 8.69782 21.3581 8.38268 21.4606 8.03603C21.4763 8.01239 21.4842 7.973 21.4606 7.95724C21.429 7.94149 21.4054 7.94937 21.3818 7.96512C20.7988 8.28026 20.1921 8.50873 19.554 8.6663C19.4988 8.68206 19.4594 8.6663 19.4279 8.63479C19.3728 8.57176 19.3255 8.51661 19.2703 8.46934C19.0025 8.24087 18.711 8.05966 18.3801 7.92573C17.9546 7.7524 17.4819 7.67362 17.0171 7.70513C16.568 7.73665 16.1268 7.8627 15.725 8.06754C15.3232 8.28026 14.9687 8.56388 14.6851 8.91841C14.3936 9.28082 14.173 9.70626 14.0627 10.1632C13.9524 10.6044 13.9682 11.0377 14.0312 11.4789C14.0391 11.5498 14.0312 11.5656 13.9682 11.5498C11.4549 11.1717 9.36714 10.2735 7.67327 8.34329C7.60236 8.25662 7.56297 8.25662 7.49994 8.35117C6.75937 9.46203 7.12178 11.2426 8.04356 12.1249C8.16961 12.2431 8.29567 12.3613 8.4296 12.4637C8.38233 12.4716 7.76781 12.4086 7.21632 12.1249C7.14541 12.0777 7.10602 12.1013 7.09814 12.188C7.09026 12.3061 7.09814 12.4164 7.12178 12.5504C7.26359 13.677 8.04356 14.7169 9.10715 15.1188C9.2332 15.1739 9.37501 15.2212 9.50895 15.2448C9.26472 15.3 9.01261 15.3393 8.3193 15.2842C8.23264 15.2684 8.20113 15.3078 8.23264 15.3945C8.7605 16.8205 9.88711 17.2459 10.738 17.4902C10.8483 17.5138 10.9665 17.5138 11.0768 17.5374C11.0689 17.5453 11.061 17.5453 11.0531 17.5611C10.7695 17.9865 9.80045 18.3095 9.3435 18.4671C8.51626 18.7586 7.61812 18.8846 6.75149 18.798C6.60968 18.7744 6.58604 18.7822 6.54665 18.798C6.50726 18.8216 6.53877 18.8531 6.58604 18.8925C6.75937 19.0107 6.94057 19.1131 7.12966 19.2155C7.68115 19.507 8.26415 19.7434 8.86292 19.9088C11.9828 20.7676 15.4887 20.1373 17.8365 17.8132C19.6721 15.9854 20.3182 13.4643 20.3182 10.9432C20.3182 10.8408 20.4364 10.7935 20.5073 10.7383C20.9879 10.3759 21.3739 9.95049 21.7284 9.4699C21.8072 9.35961 21.8072 9.26507 21.8072 9.22567C21.8072 9.2178 21.8072 9.20992 21.8072 9.20992C21.7993 9.16265 21.7993 9.17052 21.7363 9.20204Z" fill="white"/>
</svg>
