<svg width="28" height="28" viewBox="0 0 28 28" fill="none" xmlns="http://www.w3.org/2000/svg">
<path d="M14 28C21.732 28 28 21.732 28 14C28 6.26801 21.732 0 14 0C6.26801 0 0 6.26801 0 14C0 21.732 6.26801 28 14 28Z" fill="#202326"/>
<path d="M21.5379 12.2738C21.5379 10.3771 20.0029 8.8421 18.1062 8.8421H9.32649C7.42976 8.8421 5.89478 10.3771 5.89478 12.2738V16.3606C5.89478 18.2573 7.42976 19.7923 9.32649 19.7923H18.1062C20.0029 19.7923 21.5379 18.2573 21.5379 16.3606V12.2738ZM16.3757 14.6203L12.4356 16.5659C12.2791 16.6539 11.761 16.5366 11.761 16.3606V12.3716C11.761 12.1956 12.2889 12.0783 12.4453 12.1663L16.2095 14.2194C16.3659 14.3074 16.5321 14.5421 16.3757 14.6203Z" fill="white"/>
</svg>
