<svg width="28" height="28" viewBox="0 0 28 28" fill="none" xmlns="http://www.w3.org/2000/svg">
<path d="M14 28C21.732 28 28 21.732 28 14C28 6.26801 21.732 0 14 0C6.26801 0 0 6.26801 0 14C0 21.732 6.26801 28 14 28Z" fill="#202326"/>
<path d="M20.547 7.61012L6.75185 12.999C6.75185 12.999 5.77493 13.6214 6.90942 13.9995C8.04392 14.3777 9.78506 14.8977 9.78506 14.8977C9.78506 14.8977 10.1238 14.9843 10.3287 15.528C10.5335 16.0716 11.5735 19.3096 11.5735 19.3096C11.5735 19.3096 11.865 19.8769 12.4558 19.4672C13.0467 19.0575 14.4491 17.6788 14.4491 17.6788L18.0732 20.3023C18.0732 20.3023 18.9792 20.712 19.2077 19.7823C19.4362 18.8527 21.6342 8.36645 21.6342 8.36645C21.6342 8.36645 21.7445 7.45255 20.547 7.61012ZM18.8453 10.0367L12.4558 15.788C12.4558 15.788 12.2274 16.0795 12.2274 16.3316C12.2274 16.5837 12.0934 18.6163 12.0934 18.6163L10.8723 15.0159C10.8723 15.0159 10.6674 14.8583 11.1874 14.5432C11.7074 14.228 18.3253 10.0367 18.3253 10.0367C18.3253 10.0367 19.0265 9.67427 18.8453 10.0367Z" fill="white"/>
</svg>
